<svg xmlns="http://www.w3.org/2000/svg" xmlns:xlink="http://www.w3.org/1999/xlink" version="1.1" x="0px" y="0px" viewBox="0 0 72 72" enable-background="new 0 0 72 72" xml:space="preserve" style="max-width:100%" height="100%"><g fill="currentColor"><g fill="currentColor"><path fill="currentColor" d="M20.4,58c-7.8-6.1-7.3-16.6-7.3-16.7c0-0.6-0.2-1.3-0.6-1.8c-0.4-0.5-1-0.8-1.7-0.8c-0.1,0-0.1,0-0.2,0    c-1.3,0-2.3,1-2.4,2.3c0,0.5-0.7,13,9.2,20.8c0.4,0.3,1,0.5,1.5,0.5c0.7,0,1.4-0.3,1.9-0.9C21.6,60.4,21.5,58.8,20.4,58z" ></path><path fill="currentColor" d="M63.8,41c-0.1-1.3-1.1-2.3-2.4-2.3c-0.1,0-0.1,0-0.2,0c-0.6,0-1.2,0.3-1.7,0.8c-0.4,0.5-0.6,1.1-0.6,1.7    c0,0.1,0.4,10.6-7.3,16.7c-1,0.8-1.2,2.4-0.4,3.4c0.5,0.6,1.2,0.9,1.9,0.9c0.5,0,1.1-0.2,1.5-0.5C64.4,54.1,63.8,41.6,63.8,41z" ></path></g><g fill="currentColor"><ellipse fill="currentColor" cx="36" cy="45.5" rx="7.5" ry="8.5" ></ellipse><path fill="currentColor" d="M40.2,58.7l-3.4,3.4c-0.5,0.5-1.2,0.5-1.7,0l-3.4-3.4c-0.3-0.3-0.9-0.4-1.3-0.2c-4.8,2-8.2,6.5-8.6,11.9    c-0.1,0.6,0.4,1.2,1.1,1.2h26.2c0.6,0,1.1-0.5,1.1-1.2c-0.4-5.4-3.9-9.9-8.6-11.9C41.1,58.2,40.6,58.3,40.2,58.7z" ></path></g><g fill="currentColor"><ellipse fill="currentColor" cx="57.2" cy="9" rx="7.5" ry="8.5" ></ellipse><path fill="currentColor" d="M61.5,22.1l-3.4,3.4c-0.5,0.5-1.2,0.5-1.7,0L53,22.1c-0.3-0.3-0.9-0.4-1.3-0.2c-4.8,2-8.2,6.5-8.6,11.9    C43,34.4,43.5,35,44.1,35h26.2c0.6,0,1.1-0.5,1.1-1.2c-0.4-5.4-3.9-9.9-8.6-11.9C62.3,21.7,61.8,21.8,61.5,22.1z" ></path></g><g fill="currentColor"><ellipse fill="currentColor" cx="14.8" cy="9" rx="7.5" ry="8.5" ></ellipse><path fill="currentColor" d="M19,22.1l-3.4,3.4c-0.5,0.5-1.2,0.5-1.7,0l-3.4-3.4c-0.3-0.3-0.9-0.4-1.3-0.2c-4.8,2-8.2,6.5-8.6,11.9    C0.5,34.4,1,35,1.7,35h26.2c0.6,0,1.1-0.5,1.1-1.2c-0.4-5.4-3.9-9.9-8.6-11.9C19.9,21.7,19.3,21.8,19,22.1z" ></path></g></g></svg>