<svg xmlns="http://www.w3.org/2000/svg" xmlns:xlink="http://www.w3.org/1999/xlink" version="1.1" x="0px" y="0px" viewBox="0 0 100 100" enable-background="new 0 0 100 100" xml:space="preserve" style="max-width:100%" height="100%"><g fill="currentColor"><path d="M79.809,43.884c-2.231,0-4.453,0.386-6.551,1.115c-0.999-1.067-2.082-2.046-3.256-2.919   c0.025-0.464,0.051-0.93,0.051-1.395c0-13.452-10.944-24.396-24.397-24.396c-11.46,0-21.196,7.897-23.745,18.789   C9.756,36.456,0.278,46.796,0.278,59.314c0,13.451,10.944,24.396,24.396,24.396h55.134c10.98,0,19.913-8.934,19.913-19.914   S90.789,43.884,79.809,43.884z M79.809,76.879H24.675c-9.685,0-17.564-7.88-17.564-17.564c0-9.686,7.879-17.565,17.564-17.565   c2.868,0,5.601,0.668,8.122,1.985c1.672,0.876,3.735,0.226,4.609-1.445c0.874-1.672,0.227-3.736-1.445-4.609   c-2.197-1.148-4.575-1.949-7.024-2.383c2.285-7.132,8.95-12.175,16.719-12.175c9.685,0,17.565,7.879,17.565,17.564   c0,0.866-0.063,1.735-0.188,2.583c-0.01,0.062-0.003,0.122-0.009,0.183c-0.015,0.16-0.03,0.32-0.022,0.479   c0.007,0.134,0.034,0.261,0.055,0.391c0.016,0.087,0.021,0.176,0.041,0.262c0.033,0.132,0.085,0.256,0.132,0.382   c0.03,0.081,0.052,0.164,0.089,0.241c0.053,0.116,0.123,0.221,0.189,0.33c0.049,0.081,0.09,0.164,0.146,0.241   c0.083,0.114,0.182,0.215,0.278,0.319c0.055,0.058,0.101,0.121,0.159,0.175c0.17,0.158,0.354,0.3,0.554,0.421   c1.908,1.172,3.556,2.676,4.897,4.473c0.01,0.014,0.023,0.021,0.033,0.035c0.157,0.204,0.331,0.391,0.524,0.549   c0.027,0.023,0.06,0.039,0.088,0.062c0.165,0.128,0.338,0.241,0.521,0.335c0.082,0.043,0.166,0.072,0.25,0.107   c0.141,0.06,0.28,0.112,0.427,0.152c0.095,0.025,0.189,0.045,0.286,0.062c0.144,0.025,0.287,0.041,0.434,0.049   c0.059,0.004,0.117,0.021,0.177,0.021c0.054,0,0.107-0.011,0.161-0.013c0.062-0.004,0.123-0.008,0.185-0.014   c0.16-0.018,0.317-0.045,0.475-0.085c0.044-0.011,0.089-0.019,0.132-0.031c0.217-0.063,0.431-0.145,0.636-0.252   c1.847-0.944,3.845-1.425,5.939-1.425c7.213,0,13.081,5.868,13.081,13.081C92.89,71.011,87.021,76.879,79.809,76.879z" fill="currentColor"></path></g></svg>