<svg xmlns="http://www.w3.org/2000/svg" xmlns:xlink="http://www.w3.org/1999/xlink" version="1.1" x="0px" y="0px" viewBox="0 0 100 100" enable-background="new 0 0 100 100" xml:space="preserve" style="max-width:100%" height="100%"><path d="M23.5,72.4c3.9,0,7.1,3.2,7.1,7.1s-3.2,7.1-7.1,7.1s-7.1-3.2-7.1-7.1S19.6,72.4,23.5,72.4 M23.5,71.4  c-4.5,0-8.1,3.6-8.1,8.1s3.6,8.1,8.1,8.1s8.1-3.6,8.1-8.1S28,71.4,23.5,71.4L23.5,71.4z M30.2,42.9v13.4H16.8V45.4l2.5-2.5H30.2   M31.2,41.9H18.9L15.8,45v12.3h15.4V41.9L31.2,41.9z M67.8,12v13.4H54.4V12H67.8 M68.8,11H53.4v15.4h15.4V11L68.8,11z M74.8,42.9  v13.4H47.4V42.9H74.8 M75.8,41.9H46.4v15.4h29.3V41.9L75.8,41.9z M61.1,71.4l8.1,8.1l-8.1,8.1L53,79.5L61.1,71.4 M61.1,70l-9.5,9.5  l9.5,9.5l9.5-9.5L61.1,70L61.1,70z M43.8,49.1H33.8v1h10.1V49.1z M34.3,48.6l-1.9,1.1l1.9,1.1V48.6z M74.3,78.5l-1.9,1.1l1.9,1.1  V78.5z M43.4,50.7l1.9-1.1l-1.9-1.1V50.7z M61.6,26.4h-1v13h1V26.4z M60,38.9l1.1,1.9l1.1-1.9H60z M22.5,38.9l1.1,1.9l1.1-1.9H22.5z   M22.5,68.4l1.1,1.9l1.1-1.9H22.5z M47.9,80.7l1.9-1.1l-1.9-1.1V80.7z M24,19.2h29.4v-1H23v21.2h1V19.2z M24,57.3h-1v12h1V57.3z   M48.8,79H31.6v1h17.2V79z M84.6,49.1h-8.8v1h7.8V79H73.3v1h11.2V49.1z" fill="#ffffff"></path></svg>