<svg xmlns="http://www.w3.org/2000/svg" xmlns:xlink="http://www.w3.org/1999/xlink" version="1.1" x="0px" y="0px" viewBox="0 0 100 80.121" enable-background="new 0 0 100 80.121" xml:space="preserve" style="max-width:100%" height="100%"><g fill="#ffffff"><circle fill="none" cx="49.882" cy="61.279" r="1.77" ></circle><path fill="none" d="M8.181,53.791h83.402V6.786H8.181V53.791z M20.984,38.335c0.619,0,1.194,0.178,1.684,0.482L35.916,25.57   c-0.304-0.49-0.482-1.065-0.482-1.684c0-1.768,1.433-3.201,3.201-3.201s3.201,1.433,3.201,3.201c0,0.362-0.063,0.708-0.173,1.032   l14.292,8.949c0.578-0.573,1.373-0.927,2.252-0.927c0.793,0,1.519,0.291,2.078,0.769l15.552-11.405   c-0.164-0.384-0.255-0.808-0.255-1.252c0-1.768,1.434-3.201,3.2-3.201c1.769,0,3.201,1.433,3.201,3.201   c0,1.768-1.433,3.2-3.201,3.2c-0.794,0-1.519-0.291-2.077-0.769L61.15,34.888c0.164,0.385,0.255,0.808,0.255,1.253   c0,1.768-1.433,3.201-3.2,3.201c-1.769,0-3.201-1.433-3.201-3.201c0-0.362,0.063-0.708,0.173-1.032l-14.29-8.948   c-0.579,0.573-1.374,0.927-2.252,0.927c-0.619,0-1.194-0.179-1.684-0.483L23.702,39.853c0.304,0.489,0.483,1.065,0.483,1.684   c0,1.768-1.433,3.2-3.201,3.2c-1.768,0-3.201-1.433-3.201-3.2C17.783,39.768,19.216,38.335,20.984,38.335z" ></path><path d="M92.709,3.127H50.636h-1.432H7.13c-1.499,0-2.79,1.14-2.79,2.639v51.865v0.183v4.804v0.303c0,1.499,1.291,2.759,2.79,2.759   h33.697c-0.039,0.859-0.308,4.557-2.066,6.349c-1.385,1.411-3.312,2.736-2.559,3.417c0.183,0.416,1.046,0.659,3.011,0.659   c4.333,0,9.027,0,10.745,0c0.435,0,0.678,0,0.678,0c1.718,0,6.412,0,10.745,0c2.239,0,3.022-0.366,3.029-0.914h-0.078v-0.183   h-0.078c-0.101-0.734-1.593-1.828-2.722-2.979c-1.759-1.792-2.027-5.489-2.067-6.349h33.245c1.499,0,2.715-1.26,2.715-2.759v-0.303   v-4.804v-0.183V5.767C95.424,4.267,94.208,3.127,92.709,3.127z M49.882,63.049c-0.978,0-1.77-0.792-1.77-1.77   s0.792-1.771,1.77-1.771c0.977,0,1.77,0.793,1.77,1.771S50.859,63.049,49.882,63.049z M91.583,53.791H8.181V6.786h83.402V53.791z" fill="#ffffff"></path><path d="M20.984,44.737c1.768,0,3.201-1.433,3.201-3.2c0-0.619-0.179-1.195-0.483-1.684L36.95,26.604   c0.489,0.304,1.065,0.483,1.684,0.483c0.878,0,1.674-0.354,2.252-0.927l14.29,8.948c-0.11,0.324-0.173,0.67-0.173,1.032   c0,1.768,1.433,3.201,3.201,3.201c1.768,0,3.2-1.433,3.2-3.201c0-0.445-0.091-0.868-0.255-1.253l15.553-11.405   c0.559,0.479,1.283,0.769,2.077,0.769c1.769,0,3.201-1.433,3.201-3.2c0-1.768-1.433-3.201-3.201-3.201   c-1.767,0-3.2,1.433-3.2,3.201c0,0.445,0.091,0.868,0.255,1.252L60.283,33.709c-0.56-0.479-1.285-0.769-2.078-0.769   c-0.879,0-1.674,0.354-2.252,0.927l-14.292-8.949c0.111-0.324,0.173-0.67,0.173-1.032c0-1.768-1.433-3.201-3.201-3.201   s-3.201,1.433-3.201,3.201c0,0.619,0.178,1.194,0.482,1.684L22.668,38.818c-0.49-0.304-1.065-0.482-1.684-0.482   c-1.768,0-3.201,1.433-3.201,3.201C17.783,43.304,19.216,44.737,20.984,44.737z" fill="#ffffff"></path></g></svg>