<svg xmlns="http://www.w3.org/2000/svg" xmlns:xlink="http://www.w3.org/1999/xlink" version="1.1" x="0px" y="0px" viewBox="0 0 90 90" enable-background="new 0 0 90 90" xml:space="preserve" style="max-width:100%" height="100%"><path fill="#ffffff" d="M86.3,80.2H4.1c-0.3,0-0.5-0.2-0.5-0.5V8.1c0-0.3,0.2-0.5,0.5-0.5h82.2c0.3,0,0.5,0.2,0.5,0.5v71.5  C86.8,79.9,86.5,80.2,86.3,80.2z M4.6,79.2h81.2V8.6H4.6V79.2z" ></path><path fill="#ffffff" d="M72.4,33.2H17.9V19.7h54.5V33.2z M18.9,32.2h52.5V20.7H18.9V32.2z" ></path><path fill="#ffffff" d="M72.4,55.3H17.9V41.8h54.5V55.3z M18.9,54.3h52.5V42.8H18.9V54.3z" ></path><rect x="18.4" y="62.3" fill="#ffffff" width="26.8" height="6.1" ></rect></svg>